<svg height="574" width="720" xmlns="http://www.w3.org/2000/svg">
<rect height="574" fill="#555" width="720"></rect>
<text fill="#7f7" font-family="Courier New" font-size="12" xml:space="preserve">
<tspan x="10" y="26">12 megabytes installed</tspan>
<tspan x="10" y="42"></tspan>
<tspan x="10" y="58">node_modules</tspan>
<tspan x="10" y="74">└─┬ mongoose@4.9.5 </tspan>
<tspan x="10" y="90">  ├─┬ async@2.1.4 </tspan>
<tspan x="10" y="106">  │ └── lodash@4.17.4 </tspan>
<tspan x="10" y="122">  ├── bson@1.0.4 </tspan>
<tspan x="10" y="138">  ├── hooks-fixed@2.0.0 </tspan>
<tspan x="10" y="154">  ├── kareem@1.2.1 </tspan>
<tspan x="10" y="170">  ├─┬ mongodb@2.2.25 </tspan>
<tspan x="10" y="186">  │ ├── es6-promise@3.2.1 </tspan>
<tspan x="10" y="202">  │ ├─┬ mongodb-core@2.1.9 </tspan>
<tspan x="10" y="218">  │ │ └─┬ require_optional@1.0.0 </tspan>
<tspan x="10" y="234">  │ │   ├── resolve-from@2.0.0 </tspan>
<tspan x="10" y="250">  │ │   └── semver@5.3.0 </tspan>
<tspan x="10" y="266">  │ └─┬ readable-stream@2.1.5 </tspan>
<tspan x="10" y="282">  │   ├── buffer-shims@1.0.0 </tspan>
<tspan x="10" y="298">  │   ├── core-util-is@1.0.2 </tspan>
<tspan x="10" y="314">  │   ├── inherits@2.0.3 </tspan>
<tspan x="10" y="330">  │   ├── isarray@1.0.0 </tspan>
<tspan x="10" y="346">  │   ├── process-nextick-args@1.0.7 </tspan>
<tspan x="10" y="362">  │   ├── string_decoder@0.10.31 </tspan>
<tspan x="10" y="378">  │   └── util-deprecate@1.0.2 </tspan>
<tspan x="10" y="394">  ├── mpath@0.2.1 </tspan>
<tspan x="10" y="410">  ├── mpromise@0.5.5 </tspan>
<tspan x="10" y="426">  ├─┬ mquery@2.3.0 </tspan>
<tspan x="10" y="442">  │ ├── bluebird@2.10.2 </tspan>
<tspan x="10" y="458">  │ ├─┬ debug@2.2.0 </tspan>
<tspan x="10" y="474">  │ │ └── ms@0.7.1 </tspan>
<tspan x="10" y="490">  │ └── sliced@0.0.5 </tspan>
<tspan x="10" y="506">  ├── ms@0.7.2 </tspan>
<tspan x="10" y="522">  ├── muri@1.2.1 </tspan>
<tspan x="10" y="538">  ├── regexp-clone@0.0.1 </tspan>
<tspan x="10" y="554">  └── sliced@1.0.1</tspan>
</text>
</svg>
